<svg xmlns="http://www.w3.org/2000/svg" xmlns:xlink="http://www.w3.org/1999/xlink" width="301.839" height="189" viewBox="0 0 301.839 189"><defs><style>.a{fill:#d8e2f0;}.b{fill:#f2d3cd;}.c{fill:#86a3cc;}.d{fill:#de816d;}.e{filter:url(#i);}.f{filter:url(#g);}.g{filter:url(#e);}.h{filter:url(#c);}.i{filter:url(#a);}</style><filter id="a" x="0" y="18.217" width="213.829" height="141.237" filterUnits="userSpaceOnUse"><feOffset dy="3" input="SourceAlpha"/><feGaussianBlur stdDeviation="3" result="b"/><feFlood flood-opacity="0.161"/><feComposite operator="in" in2="b"/><feComposite in="SourceGraphic"/></filter><filter id="c" x="210.839" y="0" width="91" height="61" filterUnits="userSpaceOnUse"><feOffset dy="2" input="SourceAlpha"/><feGaussianBlur stdDeviation="1.5" result="d"/><feFlood flood-opacity="0.161"/><feComposite operator="in" in2="d"/><feComposite in="SourceGraphic"/></filter><filter id="e" x="210.839" y="65" width="91" height="60" filterUnits="userSpaceOnUse"><feOffset dy="2" input="SourceAlpha"/><feGaussianBlur stdDeviation="1.5" result="f"/><feFlood flood-opacity="0.161"/><feComposite operator="in" in2="f"/><feComposite in="SourceGraphic"/></filter><filter id="g" x="210.839" y="128" width="91" height="61" filterUnits="userSpaceOnUse"><feOffset dy="2" input="SourceAlpha"/><feGaussianBlur stdDeviation="1.5" result="h"/><feFlood flood-opacity="0.161"/><feComposite operator="in" in2="h"/><feComposite in="SourceGraphic"/></filter><filter id="i" x="33.86" y="35.063" width="151.484" height="141.949" filterUnits="userSpaceOnUse"><feOffset dy="3" input="SourceAlpha"/><feGaussianBlur stdDeviation="3" result="j"/><feFlood flood-opacity="0.161"/><feComposite operator="in" in2="j"/><feComposite in="SourceGraphic"/></filter></defs><g transform="translate(-131 -2242.363)"><g class="i" transform="matrix(1, 0, 0, 1, 131, 2242.36)"><rect class="a" width="195.829" height="123.237" rx="10" transform="translate(9 24.22)"/></g><g class="h" transform="matrix(1, 0, 0, 1, 131, 2242.36)"><rect class="b" width="82" height="52" rx="5" transform="translate(215.34 2.5)"/></g><g class="g" transform="matrix(1, 0, 0, 1, 131, 2242.36)"><rect class="b" width="82" height="51" rx="5" transform="translate(215.34 67.5)"/></g><g class="f" transform="matrix(1, 0, 0, 1, 131, 2242.36)"><rect class="b" width="82" height="52" rx="5" transform="translate(215.34 130.5)"/></g><g class="e" transform="matrix(1, 0, 0, 1, 131, 2242.36)"><path class="c" d="M80.775,91.984V84.121C91.278,78.2,99.844,63.447,99.844,48.69c0-23.7,0-42.906-28.6-42.906s-28.6,19.209-28.6,42.906c0,14.758,8.567,29.513,19.069,35.432v7.863C29.363,94.628,4.5,110.52,4.5,129.733H137.983C137.983,110.52,113.119,94.628,80.775,91.984Z" transform="translate(38.36 35.28)"/></g><path class="d" d="M29.568,34.115V31.531c3.452-1.945,6.267-6.795,6.267-11.645,0-7.788,0-14.1-9.4-14.1s-9.4,6.313-9.4,14.1c0,4.85,2.816,9.7,6.267,11.645v2.584c-10.63.869-18.8,6.092-18.8,12.407H48.37c0-6.315-8.172-11.538-18.8-12.407Z" transform="translate(360.852 2246.094)"/><path class="d" d="M29.568,34.115V31.531c3.452-1.945,6.267-6.795,6.267-11.645,0-7.788,0-14.1-9.4-14.1s-9.4,6.313-9.4,14.1c0,4.85,2.816,9.7,6.267,11.645v2.584c-10.63.869-18.8,6.092-18.8,12.407H48.37c0-6.315-8.172-11.538-18.8-12.407Z" transform="translate(360.852 2310.825)"/><path class="d" d="M29.568,34.115V31.531c3.452-1.945,6.267-6.795,6.267-11.645,0-7.788,0-14.1-9.4-14.1s-9.4,6.313-9.4,14.1c0,4.85,2.816,9.7,6.267,11.645v2.584c-10.63.869-18.8,6.092-18.8,12.407H48.37c0-6.315-8.172-11.538-18.8-12.407Z" transform="translate(360.852 2374.554)"/></g></svg>