<svg xmlns="http://www.w3.org/2000/svg" xmlns:xlink="http://www.w3.org/1999/xlink" width="306" height="198" viewBox="0 0 306 198"><defs><style>.a{fill:#d8e2f0;}.b{fill:#86a3cc;opacity:0.4;}.c{fill:#de816d;}.d{fill:#fff;}.e{fill:#e2e2e2;}.f{fill:#cecece;}.g{fill:#b5b5b5;}.h{filter:url(#e);}.i{filter:url(#c);}.j{filter:url(#a);}</style><filter id="a" x="0" y="29" width="213" height="140" filterUnits="userSpaceOnUse"><feOffset dy="3" input="SourceAlpha"/><feGaussianBlur stdDeviation="3" result="b"/><feFlood flood-opacity="0.161"/><feComposite operator="in" in2="b"/><feComposite in="SourceGraphic"/></filter><filter id="c" x="77" y="66" width="60" height="66" filterUnits="userSpaceOnUse"><feOffset dy="3" input="SourceAlpha"/><feGaussianBlur stdDeviation="3" result="d"/><feFlood flood-opacity="0.161"/><feComposite operator="in" in2="d"/><feComposite in="SourceGraphic"/></filter><filter id="e" x="157" y="0" width="149" height="198" filterUnits="userSpaceOnUse"><feOffset dy="3" input="SourceAlpha"/><feGaussianBlur stdDeviation="3" result="f"/><feFlood flood-opacity="0.161"/><feComposite operator="in" in2="f"/><feComposite in="SourceGraphic"/></filter></defs><g transform="translate(-530 -2255)"><g class="j" transform="matrix(1, 0, 0, 1, 530, 2255)"><rect class="a" width="195" height="122" rx="10" transform="translate(9 35)"/></g><path class="b" d="M66.6,75.961v-6.4c8.55-4.818,15.525-16.831,15.525-28.846,0-19.291,0-34.93-23.287-34.93S35.548,21.423,35.548,40.714c0,12.015,6.974,24.027,15.525,28.846v6.4C24.741,78.114,4.5,91.051,4.5,106.693H113.17c0-15.642-20.242-28.58-46.574-30.732Z" transform="translate(577.833 2294.771)"/><g class="i" transform="matrix(1, 0, 0, 1, 530, 2255)"><path class="c" d="M21.4,4.558a3,3,0,0,1,5.209,0l18.83,32.953A3,3,0,0,1,42.83,42H5.17a3,3,0,0,1-2.6-4.488Z" transform="translate(128 72) rotate(90)"/></g><g class="h" transform="matrix(1, 0, 0, 1, 530, 2255)"><rect class="d" width="131" height="180" rx="10" transform="translate(166 6)"/></g><path class="e" d="M10,0H121a10,10,0,0,1,10,10v8a0,0,0,0,1,0,0H0a0,0,0,0,1,0,0V10A10,10,0,0,1,10,0Z" transform="translate(696 2261)"/><g transform="translate(706.587 2289.505)"><rect class="f" width="24" height="34" transform="translate(0.413 0.495)"/><rect class="g" width="77" height="6" transform="translate(33.413 0.495)"/><rect class="g" width="110" height="6" transform="translate(0.413 42.495)"/><rect class="g" width="110" height="6" transform="translate(0.413 84.495)"/><rect class="g" width="77" height="6" transform="translate(33.413 14.495)"/><rect class="g" width="110" height="6" transform="translate(0.413 56.495)"/><rect class="g" width="110" height="6" transform="translate(0.413 98.495)"/><rect class="g" width="110" height="6" transform="translate(0.413 126.495)"/><rect class="g" width="77" height="6" transform="translate(33.413 28.495)"/><rect class="g" width="110" height="6" transform="translate(0.413 70.495)"/><rect class="g" width="110" height="6" transform="translate(0.413 112.495)"/></g></g></svg>