<svg xmlns="http://www.w3.org/2000/svg" width="1091" height="943.5" viewBox="0 0 1091 943.5"><defs><style>.a,.c,.e{fill:#fff;}.a{font-size:12px;}.a,.c{font-family:RocGrotesk-Regular, Roc Grotesk;}.b{fill:none;stroke:#fff;}.c{font-size:16px;}.d{fill:#1b66bf;font-family:RocGrotesk-Bold, Roc Grotesk;font-weight:700;}.e{opacity:0.2;}.f{fill:#dd5b3f;}</style></defs><g transform="translate(-140 -15265.5)"><text class="a" transform="translate(819 16160)"><tspan x="-68.406" y="0">Percentage of students</tspan></text><text class="a" transform="translate(554 16133)"><tspan x="-10.872" y="0">10%</tspan></text><text class="a" transform="translate(687 16133)"><tspan x="-10.872" y="0">20%</tspan></text><text class="a" transform="translate(820 16133)"><tspan x="-10.872" y="0">30%</tspan></text><text class="a" transform="translate(954 16133)"><tspan x="-10.872" y="0">40%</tspan></text><text class="a" transform="translate(1086 16133)"><tspan x="-10.872" y="0">50%</tspan></text><text class="a" transform="translate(1220 16193)"><tspan x="-10.872" y="0">60%</tspan></text><path class="b" d="M419,6624.981v-8.134h800v8.134" transform="translate(0.5 9492)"/><line class="b" y2="8" transform="translate(553.5 16109)"/><line class="b" y2="8" transform="translate(686.5 16109)"/><line class="b" y2="8" transform="translate(819.5 16109)"/><line class="b" y2="8" transform="translate(953.5 16109)"/><line class="b" y2="8" transform="translate(1085.5 16109)"/><text class="c" transform="translate(621 16205)"><tspan x="0" y="0">Source: </tspan><tspan class="d" y="0">Statista</tspan></text><text class="a" transform="translate(317 15294)"><tspan x="0.616" y="9">Affordability</tspan></text><text class="a" transform="translate(184 15352)"><tspan x="0.72" y="9">Reputation of the school / program</tspan></text><text class="a" transform="translate(143 15400)"><tspan x="11.78" y="9">The school awarded academic credit for </tspan><tspan x="101.144" y="24">my work / life experience</tspan></text><text class="a" transform="translate(192 15466)"><tspan x="0.908" y="9">Offered quickest path to a degree</tspan></text><text class="a" transform="translate(140 15509)"><tspan x="34.716" y="9">I can take both online and on-campus </tspan><tspan x="82.716" y="24">courses during my program</tspan></text><text class="a" transform="translate(202 15572)"><tspan x="0.32" y="9">Proximity to where I live or work</tspan></text><text class="a" transform="translate(290 15627)"><tspan x="0.164" y="9">Quality of faculty</tspan></text><text class="a" transform="translate(147 15682)"><tspan x="0.608" y="9">Had favourable admissions requirements</tspan></text><text class="a" transform="translate(159 15737)"><tspan x="0.224" y="9">Recommendation from people I respect</tspan></text><text class="a" transform="translate(140 15786)"><tspan x="-242.112" y="9">The school’s mission / values align with my </tspan><tspan x="-37.428" y="24">values</tspan></text><text class="a" transform="translate(239 15847)"><tspan x="0.472" y="9">Familiarity with the school</tspan></text><text class="a" transform="translate(140 15895)"><tspan x="31.96" y="9">Positive interactions with staff during </tspan><tspan x="157.744" y="24">search process</tspan></text><text class="a" transform="translate(140 15950)"><tspan x="-231.228" y="9">My employer had a relationship with the </tspan><tspan x="-38.208" y="24">school</tspan></text><text class="a" transform="translate(266 16012)"><tspan x="0.52" y="9">Alumni achievements</tspan></text><text class="a" transform="translate(301 16067)"><tspan x="0.62" y="9">Something else</tspan></text><text class="a" transform="translate(419 16133)"><tspan x="-3.624" y="0">0</tspan></text><rect class="e" width="133" height="843" transform="translate(554 15266)"/><rect class="e" width="133" height="843" transform="translate(820 15266)"/><rect class="e" width="134" height="843" transform="translate(1086 15266)"/><rect class="f" width="679" height="40" transform="translate(419 15283)"/><rect class="f" width="373" height="40" transform="translate(419 15448)"/><rect class="f" width="280" height="40" transform="translate(419 15613)"/><rect class="f" width="160" height="40" transform="translate(419 15889)"/><rect class="f" width="480" height="40" transform="translate(419 15338)"/><rect class="f" width="360" height="40" transform="translate(419 15503)"/><rect class="f" width="200" height="40" transform="translate(419 15668)"/><rect class="f" width="147" height="40" transform="translate(419 15943)"/><rect class="f" width="386" height="40" transform="translate(419 15393)"/><rect class="f" width="293" height="40" transform="translate(419 15558)"/><rect class="f" width="173" height="40" transform="translate(419 15833)"/><rect class="f" width="200" height="40" transform="translate(419 15723)"/><rect class="f" width="53" height="40" transform="translate(419 15998)"/><rect class="f" width="186" height="40" transform="translate(419 15779)"/><rect class="f" width="27" height="40" transform="translate(419 16053)"/><line class="b" y2="843.5" transform="translate(419.5 15265.5)"/></g></svg>