<svg xmlns="http://www.w3.org/2000/svg" xmlns:xlink="http://www.w3.org/1999/xlink" width="306" height="206.181" viewBox="0 0 306 206.181"><defs><style>.a{fill:#d8e2f0;}.b,.c{fill:#86a3cc;}.b{opacity:0.4;}.d{filter:url(#c);}.e{filter:url(#a);}</style><filter id="a" x="56" y="0" width="250" height="163" filterUnits="userSpaceOnUse"><feOffset dy="3" input="SourceAlpha"/><feGaussianBlur stdDeviation="3" result="b"/><feFlood flood-opacity="0.161"/><feComposite operator="in" in2="b"/><feComposite in="SourceGraphic"/></filter><filter id="c" x="0" y="78.181" width="136.462" height="128" filterUnits="userSpaceOnUse"><feOffset dy="3" input="SourceAlpha"/><feGaussianBlur stdDeviation="3" result="d"/><feFlood flood-opacity="0.161"/><feComposite operator="in" in2="d"/><feComposite in="SourceGraphic"/></filter></defs><g transform="translate(-902 -8346)"><g class="e" transform="matrix(1, 0, 0, 1, 902, 8346)"><rect class="a" width="232" height="145" rx="10" transform="translate(65 6)"/></g><path class="b" d="M78.588,89.512V81.875c10.2-5.749,18.522-20.081,18.522-34.416,0-23.017,0-41.675-27.783-41.675S41.543,24.443,41.543,47.459c0,14.334,8.321,28.667,18.522,34.416v7.638C28.65,92.08,4.5,107.516,4.5,126.179H134.155c0-18.662-24.151-34.1-55.567-36.667Z" transform="translate(1013.547 8358.81)"/><g class="d" transform="matrix(1, 0, 0, 1, 902, 8346)"><path class="c" d="M72.191,82.283V75.305c9.321-5.252,16.923-18.347,16.923-31.444,0-21.029,0-38.077-25.385-38.077S38.345,22.832,38.345,43.861c0,13.1,7.6,26.192,16.923,31.444v6.978C26.565,84.63,4.5,98.733,4.5,115.784H122.96C122.96,98.733,100.894,84.63,72.191,82.283Z" transform="translate(4.5 78.4)"/></g></g></svg>