<svg xmlns="http://www.w3.org/2000/svg" xmlns:xlink="http://www.w3.org/1999/xlink" width="306.17" height="199.181" viewBox="0 0 306.17 199.181"><defs><style>.a{fill:#f2d3cd;}.b{fill:#de816d;}.c{fill:#d8e2f0;}.d{fill:#86a3cc;}.e{filter:url(#i);}.f{filter:url(#g);}.g{filter:url(#e);}.h{filter:url(#c);}.i{filter:url(#a);}</style><filter id="a" x="78.464" y="41.941" width="68.33" height="117.611" filterUnits="userSpaceOnUse"><feOffset dy="3" input="SourceAlpha"/><feGaussianBlur stdDeviation="3" result="b"/><feFlood flood-opacity="0.161"/><feComposite operator="in" in2="b"/><feComposite in="SourceGraphic"/></filter><filter id="c" x="237.84" y="41.941" width="68.33" height="117.61" filterUnits="userSpaceOnUse"><feOffset dy="3" input="SourceAlpha"/><feGaussianBlur stdDeviation="3" result="d"/><feFlood flood-opacity="0.161"/><feComposite operator="in" in2="d"/><feComposite in="SourceGraphic"/></filter><filter id="e" x="128.793" y="0" width="127.047" height="159.553" filterUnits="userSpaceOnUse"><feOffset dy="3" input="SourceAlpha"/><feGaussianBlur stdDeviation="3" result="f"/><feFlood flood-opacity="0.161"/><feComposite operator="in" in2="f"/><feComposite in="SourceGraphic"/></filter><filter id="g" x="0" y="70.776" width="171.558" height="114.636" filterUnits="userSpaceOnUse"><feOffset dy="3" input="SourceAlpha"/><feGaussianBlur stdDeviation="3" result="h"/><feFlood flood-opacity="0.161"/><feComposite operator="in" in2="h"/><feComposite in="SourceGraphic"/></filter><filter id="i" x="26.551" y="83.986" width="122.671" height="115.194" filterUnits="userSpaceOnUse"><feOffset dy="3" input="SourceAlpha"/><feGaussianBlur stdDeviation="3" result="j"/><feFlood flood-opacity="0.161"/><feComposite operator="in" in2="j"/><feComposite in="SourceGraphic"/></filter></defs><g transform="translate(-158 -8353)"><g transform="translate(-140.536 561)"><g class="i" transform="matrix(1, 0, 0, 1, 298.54, 7792)"><path class="a" d="M50.33,99.611H4a4.005,4.005,0,0,1-4-4V4A4,4,0,0,1,4,0H50.33V99.61ZM30.407,68.154v14.68h7.34V68.154Zm-16.776,0v14.68h7.34V68.154ZM30.407,42.99V57.669h7.34V42.99Zm-16.776,0V57.669h7.34V42.99ZM30.407,17.825V32.5h7.34V17.825Zm-16.776,0V32.5h7.34V17.825Z" transform="translate(87.46 47.94)"/></g><g class="h" transform="matrix(1, 0, 0, 1, 298.54, 7792)"><path class="a" d="M46.329,99.61H0V0H46.329a4,4,0,0,1,4,4V95.61A4.005,4.005,0,0,1,46.329,99.61ZM30.407,68.154v14.68h7.34V68.154Zm-16.776,0v14.68h7.339V68.154ZM30.407,42.99V57.669h7.34V42.99Zm-16.776,0V57.669h7.339V42.99ZM30.407,17.825V32.5h7.34V17.825Zm-16.776,0V32.5h7.339V17.825Z" transform="translate(246.84 47.94)"/></g><g class="g" transform="matrix(1, 0, 0, 1, 298.54, 7792)"><path class="b" d="M109.047,141.552h-36.7V100.659H36.7v40.892H0V31.456L54.524,0l54.523,31.456v110.1ZM78.64,75.494V85.979H97.514V75.494Zm-33.553,0V85.979H63.961V75.494Zm-33.552,0V85.979H30.408V75.494ZM78.64,51.377V61.864H97.514V51.377Zm-33.553,0V61.864H63.961V51.377Zm-33.552,0V61.864H30.408V51.377ZM54.524,15.728a9.437,9.437,0,1,0,9.437,9.437A9.447,9.447,0,0,0,54.524,15.728Z" transform="translate(137.79 6)"/></g></g><g transform="translate(-64.588 6151.146)"><g class="f" transform="matrix(1, 0, 0, 1, 222.59, 2201.85)"><rect class="c" width="153.558" height="96.636" rx="10" transform="translate(9 76.78)"/></g><g class="e" transform="matrix(1, 0, 0, 1, 222.59, 2201.85)"><path class="d" d="M64.311,73.377V67.212C72.546,62.571,79.263,51,79.263,39.428c0-18.581,0-33.644-22.429-33.644S34.4,20.847,34.4,39.428C34.4,51,41.122,62.571,49.358,67.212v6.166C24,75.451,4.5,87.912,4.5,102.978H109.169C109.169,87.912,89.672,75.451,64.311,73.377Z" transform="translate(31.05 84.2)"/></g></g></g></svg>