<svg xmlns="http://www.w3.org/2000/svg" xmlns:xlink="http://www.w3.org/1999/xlink" width="303.558" height="206.181" viewBox="0 0 303.558 206.181"><defs><style>.a{fill:#fff;}.b{fill:#e2e2e2;}.c{fill:#f2d3cd;}.d{fill:#de816d;}.e{fill:#d8e2f0;}.f{fill:#86a3cc;}.g{filter:url(#e);}.h{filter:url(#c);}.i{filter:url(#a);}</style><filter id="a" x="63.558" y="0" width="240" height="177" filterUnits="userSpaceOnUse"><feOffset dy="3" input="SourceAlpha"/><feGaussianBlur stdDeviation="3" result="b"/><feFlood flood-opacity="0.161"/><feComposite operator="in" in2="b"/><feComposite in="SourceGraphic"/></filter><filter id="c" x="0" y="77.776" width="171.558" height="114.636" filterUnits="userSpaceOnUse"><feOffset dy="3" input="SourceAlpha"/><feGaussianBlur stdDeviation="3" result="d"/><feFlood flood-opacity="0.161"/><feComposite operator="in" in2="d"/><feComposite in="SourceGraphic"/></filter><filter id="e" x="26.551" y="90.986" width="122.671" height="115.194" filterUnits="userSpaceOnUse"><feOffset dy="3" input="SourceAlpha"/><feGaussianBlur stdDeviation="3" result="f"/><feFlood flood-opacity="0.161"/><feComposite operator="in" in2="f"/><feComposite in="SourceGraphic"/></filter></defs><g transform="translate(-532.442 -8346)"><g transform="translate(29.779 6091)"><g class="i" transform="matrix(1, 0, 0, 1, 502.66, 2255)"><rect class="a" width="222" height="159" rx="10" transform="translate(72.56 6)"/></g><path class="b" d="M10,0H212a10,10,0,0,1,10,10v6a0,0,0,0,1,0,0H0a0,0,0,0,1,0,0V10A10,10,0,0,1,10,0Z" transform="translate(575.221 2261)"/><g transform="translate(670.808 2289.505)"><rect class="c" width="190" height="57" transform="translate(-79.587 0.495)"/><rect class="d" width="190" height="6" transform="translate(-79.587 67.495)"/><rect class="d" width="190" height="6" transform="translate(-79.587 81.495)"/><rect class="d" width="190" height="6" transform="translate(-79.587 109.495)"/><rect class="d" width="190" height="6" transform="translate(-79.587 95.495)"/></g></g><g transform="translate(309.854 6151.146)"><g class="h" transform="matrix(1, 0, 0, 1, 222.59, 2194.85)"><rect class="e" width="153.558" height="96.636" rx="10" transform="translate(9 83.78)"/></g><g class="g" transform="matrix(1, 0, 0, 1, 222.59, 2194.85)"><path class="f" d="M64.311,73.377V67.212C72.546,62.571,79.263,51,79.263,39.428c0-18.581,0-33.644-22.429-33.644S34.4,20.847,34.4,39.428C34.4,51,41.122,62.571,49.358,67.212v6.166C24,75.451,4.5,87.912,4.5,102.978H109.169C109.169,87.912,89.672,75.451,64.311,73.377Z" transform="translate(31.05 91.2)"/></g></g></g></svg>