<svg xmlns="http://www.w3.org/2000/svg" width="1069" height="830" viewBox="0 0 1069 830"><defs><style>.a,.b,.d,.h{fill:#fff;}.a{opacity:0.2;}.b{font-size:12px;}.b,.d{font-family:RocGrotesk-Regular, Roc Grotesk;}.c{fill:none;stroke:#fff;}.d,.h{font-size:16px;}.e,.g{fill:#588ac9;}.e{font-family:RocGrotesk-Bold, Roc Grotesk;font-weight:700;}.f{fill:#dd5b3f;}.h{font-family:RocGrotesk-Medium, Roc Grotesk;font-weight:500;}</style></defs><g transform="translate(-151 -6075)"><rect class="a" width="100" height="681" transform="translate(520 6131)"/><rect class="a" width="100" height="681" transform="translate(720 6131)"/><rect class="a" width="100" height="681" transform="translate(920 6131)"/><text class="b" transform="translate(819 6863)"><tspan x="-68.406" y="0">Percentage of students</tspan></text><text class="b" transform="translate(520 6836)"><tspan x="-10.872" y="0">10%</tspan></text><text class="b" transform="translate(620 6836)"><tspan x="-10.872" y="0">20%</tspan></text><text class="b" transform="translate(720 6836)"><tspan x="-10.872" y="0">30%</tspan></text><text class="b" transform="translate(820 6836)"><tspan x="-10.872" y="0">40%</tspan></text><text class="b" transform="translate(920 6836)"><tspan x="-10.872" y="0">50%</tspan></text><text class="b" transform="translate(1020 6836)"><tspan x="-10.872" y="0">60%</tspan></text><path class="c" d="M419,6624.981v-8.134h800v8.134" transform="translate(0.5 195)"/><line class="c" y2="8" transform="translate(519.5 6812)"/><line class="c" y2="8" transform="translate(619.5 6812)"/><line class="c" y2="8" transform="translate(719.5 6812)"/><line class="c" y2="8" transform="translate(819.5 6812)"/><line class="c" y2="8" transform="translate(919.5 6812)"/><line class="c" y2="8" transform="translate(1019.5 6812)"/><text class="d" transform="translate(628 6901)"><tspan x="0" y="0">Source: </tspan><tspan class="e" y="0">CNBC</tspan></text><text class="b" transform="translate(281 6174)"><tspan x="-108.282" y="0">Staying engaged while learning online</tspan></text><text class="b" transform="translate(329 6223)"><tspan x="-59.64" y="0">My mental well-being</tspan></text><text class="b" transform="translate(270 6272)"><tspan x="-118.704" y="0">Making friends/maintaining relationships</tspan></text><text class="b" transform="translate(334 6333)"><tspan x="-55.02" y="0">Catching COVID-19</tspan></text><text class="b" transform="translate(298 6394)"><tspan x="-91.152" y="0">Your personal finance situation</tspan></text><text class="b" transform="translate(303 6443)"><tspan x="-86.448" y="0">Getting a job after graduation</tspan></text><text class="b" transform="translate(350 6499)"><tspan x="-38.538" y="0">The economy</tspan></text><text class="b" transform="translate(282 6548)"><tspan x="-107.118" y="0">Social/physical distancing on campus</tspan></text><text class="b" transform="translate(333 6606)"><tspan x="-56.202" y="0">Graduating on time</tspan></text><text class="b" transform="translate(302 6665)"><tspan x="-87.42" y="0">Balancing child care/schooling</tspan></text><text class="b" transform="translate(372 6724)"><tspan x="-17.478" y="0">Other</tspan></text><text class="b" transform="translate(337 6773)"><tspan x="-52.272" y="0">None of the above</tspan></text><text class="b" transform="translate(419 6836)"><tspan x="-3.624" y="0">0</tspan></text><rect class="f" width="760" height="20" transform="translate(419 6146)"/><rect class="g" width="700" height="20" transform="translate(419 6165)"/><rect class="f" width="640" height="20" transform="translate(419 6200)"/><rect class="g" width="570" height="20" transform="translate(419 6220)"/><rect class="f" width="640" height="20" transform="translate(419 6255)"/><rect class="g" width="650" height="20" transform="translate(419 6275)"/><rect class="f" width="570" height="20" transform="translate(419 6310)"/><rect class="g" width="580" height="20" transform="translate(419 6330)"/><rect class="f" width="540" height="20" transform="translate(419 6365)"/><rect class="g" width="480" height="20" transform="translate(419 6385)"/><rect class="f" width="490" height="20" transform="translate(419 6420)"/><rect class="g" width="430" height="20" transform="translate(419 6440)"/><rect class="f" width="380" height="20" transform="translate(419 6475)"/><rect class="g" width="360" height="20" transform="translate(419 6495)"/><rect class="f" width="320" height="20" transform="translate(419 6530)"/><rect class="g" width="420" height="20" transform="translate(419 6550)"/><rect class="f" width="290" height="20" transform="translate(419 6585)"/><rect class="g" width="240" height="20" transform="translate(419 6605)"/><rect class="f" width="60" height="20" transform="translate(419 6640)"/><rect class="g" width="40" height="20" transform="translate(419 6660)"/><rect class="f" width="60" height="20" transform="translate(419 6695)"/><rect class="g" width="70" height="20" transform="translate(419 6715)"/><rect class="f" width="20" height="20" transform="translate(419 6750)"/><rect class="g" width="20" height="20" transform="translate(419 6770)"/><text class="h" transform="translate(832 6094)"><tspan x="0" y="0">Students taking just remote class</tspan></text><text class="h" transform="translate(367 6094)"><tspan x="0" y="0">Students taking both remote and in-person</tspan></text><circle class="f" cx="13" cy="13" r="13" transform="translate(791 6075)"/><circle class="g" cx="13" cy="13" r="13" transform="translate(326 6075)"/><line class="c" y2="681" transform="translate(419.5 6131)"/></g></svg>